<svg width="598" height="481" viewBox="0 0 598 481" fill="none" xmlns="http://www.w3.org/2000/svg">
<path d="M136.553 378.511C140.48 378.002 143.994 377.647 147.244 377.437L170.656 401.99L174.425 405.938C170.337 413.688 165.457 420.845 160.728 427.771C159.084 430.172 157.39 432.661 155.754 435.132C154.869 436.477 153.225 437.174 151.314 437.986C151.065 438.089 150.818 438.202 150.569 438.305C144.993 440.722 138.96 442.331 132.117 443.218C124.253 444.238 116.429 444.164 109.808 443.963C108.127 443.909 106.679 443.321 105.357 442.141C98.6424 436.165 91.9281 430.188 85.0682 424.1L79.4948 419.146L90.3283 398.955L98.4488 383.815C101.341 383.571 104.395 383.245 107.707 382.816C112.695 382.169 117.655 381.375 122.456 380.611C127.091 379.879 131.892 379.115 136.553 378.511ZM136.167 375.536C126.687 376.765 117.121 378.58 107.323 379.851C103.772 380.311 100.193 380.705 96.5764 380.962C89.7127 393.741 82.8602 406.528 75.7297 419.815C85.1664 428.201 94.2719 436.288 103.359 444.386C105.182 446.005 107.303 446.89 109.714 446.971C117.378 447.207 125.006 447.166 132.503 446.194C139.048 445.345 145.481 443.785 151.763 441.064C154.169 440.016 156.715 439.121 158.25 436.805C164.988 426.634 172.329 416.838 178.068 405.416C168.265 395.141 158.648 385.054 148.458 374.355C144.363 374.584 140.273 375.003 136.167 375.536Z" fill="url(#paint0_linear_8_808)"/>
<path d="M63.406 243.98C65.558 243.701 67.702 243.826 69.9693 244.359C73.0587 245.088 76.1899 245.206 79.2193 245.318C80.9623 245.384 82.6135 245.442 84.2392 245.615C85.742 245.773 87.2569 245.869 88.721 245.961C91.7508 246.153 94.6479 246.332 97.4605 247.026L98.041 250.803L103.435 286.102C102.13 287.391 100.836 288.688 99.5309 289.977C89.2852 300.159 78.69 310.679 67.4235 320.61L28.4477 313.594C28.2975 310.88 28.14 308.188 27.9976 305.535C27.5038 296.594 27.0333 288.144 26.478 279.585C26.3161 277.014 27.3635 274.982 28.9953 272.714C34.984 264.385 42.3245 256.838 51.4664 249.653C55.7388 246.285 59.5285 244.483 63.406 243.98ZM63.0203 241.005C58.0717 241.647 53.6969 244.069 49.6074 247.292C40.9055 254.138 33.06 261.911 26.5599 270.962C24.6372 273.632 23.2616 276.321 23.4883 279.781C24.2512 291.651 24.8726 303.52 25.5904 316.132C40.0762 318.741 54.3136 321.301 68.3239 323.821C81.8639 311.981 94.0742 299.608 106.639 287.169C104.47 273.011 102.327 258.97 100.141 244.682C94.9561 242.955 89.6905 243.173 84.548 242.63C79.9266 242.14 75.1344 242.51 70.6604 241.446C67.956 240.809 65.4202 240.694 63.0203 241.005Z" fill="url(#paint1_linear_8_808)"/>
<path d="M143.778 232.429C145.722 232.177 147.829 232.488 150.42 233.413C164.64 238.486 176.685 245.365 187.205 254.407C189.993 265.642 192.836 277.696 195.016 290.149L183.411 295.758L158.843 307.626C143.821 300.105 129.341 292.02 115.871 284.338L112.572 258.579L110.907 245.585C110.934 245.561 110.972 245.546 110.999 245.523C111.845 244.969 112.516 244.54 113.1 244.302C122.165 240.646 130.922 237.181 141.436 233.035C142.214 232.732 142.975 232.533 143.778 232.429ZM143.392 229.454C142.381 229.585 141.374 229.836 140.358 230.24C130.9 233.978 121.432 237.716 112.003 241.52C110.691 242.054 109.539 242.969 107.706 244.074C109.5 258.07 111.29 272.106 113.099 286.211C128.246 294.854 143.183 303.193 158.833 310.975C172.317 304.457 185.109 298.281 198.365 291.873C196.122 278.541 193.096 265.622 189.896 252.767C178.444 242.757 165.551 235.636 151.436 230.599C148.75 229.636 146.08 229.105 143.392 229.454Z" fill="url(#paint2_linear_8_808)"/>
<path d="M202.988 301.236L226.423 330.405C227.123 344.824 224.886 360.543 220.276 373.594C218.523 378.581 215.673 381.874 211.327 383.981C206.441 386.349 201.484 389.26 196.196 392.88C192.131 395.666 188.199 397.618 183.863 399.017C177.209 393.659 171.574 387.452 166.127 381.452C162.338 377.275 158.432 372.971 154.265 369.065L159.855 337.363L162.981 319.634C174.727 312.312 196.122 302.489 202.988 301.236ZM203.342 300.313C196.851 301.195 174.309 311.499 162.207 319.109C159.33 335.414 156.363 352.266 153.348 369.375C163.645 378.951 171.979 390.656 183.684 399.968C188.742 398.385 192.882 396.174 196.681 393.584C201.507 390.286 206.462 387.284 211.709 384.748C216.453 382.449 219.336 378.868 221.09 373.882C225.589 361.147 228.048 345.35 227.27 330.093C219.539 320.477 211.376 310.323 203.342 300.313Z" fill="#C7D1D9"/>
<path d="M26.3758 326.467L49.3662 330.585L64.3249 333.263L74.055 353.399L86.3611 378.858L71.3847 406.604L67.9214 413.023L32.4327 403.427C21.4663 390.399 14.6513 376.258 11.6195 360.265L12.0255 359.275C16.6989 347.879 21.1283 337.09 26.3758 326.467ZM24.6909 323.116C18.6668 335.06 13.6676 347.365 8.50099 359.933C11.5927 377.088 18.9247 392.261 30.7394 406.077C43.2366 409.448 56.1115 412.931 69.4247 416.529C76.3194 403.756 82.9301 391.514 89.7191 378.937C82.0013 362.967 74.3111 347.054 66.3467 330.581C52.8528 328.156 39.1443 325.709 24.6909 323.116Z" fill="url(#paint3_linear_8_808)"/>
<path d="M110.694 293.712C98.4235 305.155 85.8243 315.773 74.6302 328.206C82.0173 343.493 89.1978 358.353 96.8054 374.095C113.099 371.902 129.392 369.709 146.379 367.425C149.441 350.602 152.448 334.128 155.466 317.512C140.546 308.909 125.927 301.226 110.694 293.712Z" fill="url(#paint4_linear_8_808)"/>
<path d="M6.87509 343.506C13.8297 333.761 18.6744 318.632 18.1308 308.296C17.8316 302.567 17.5026 296.842 17.1598 290.544C8.96724 299.451 3.15844 330.708 6.87509 343.506Z" fill="url(#paint5_linear_8_808)"/>
<path d="M201.991 267.03C213.302 280.306 220.255 294.661 223.726 311.857C210.275 300.432 203.145 285.727 201.991 267.03ZM201.021 264.605C201.733 285.648 209.589 301.751 225.003 314.011C221.552 294.937 214.08 279.308 201.021 264.605Z" fill="#C7D1D9"/>
<path d="M50.9668 421.625C61.6539 423.556 73.3436 429.876 81.5543 438.138C71.1798 434.886 58.8946 428.25 50.9668 421.625ZM43.1509 418.04C51.4664 428.588 75.0134 441.276 89.4865 443.009C79.6047 428.469 59.1028 417.414 43.1509 418.04Z" fill="url(#paint6_linear_8_808)"/>
<path d="M208.756 396.193C200.276 409.726 188.857 420.574 173.115 430.057C180.918 412.851 192.327 402.004 208.756 396.193ZM210.713 394.638C190.541 401.056 178.743 414.353 171.288 432.139C187.083 422.992 200.673 411.54 210.713 394.638Z" fill="#D2ECFF"/>
<path d="M76.75 234.596C84.7498 235.555 92.7352 236.638 100.76 237.402C102.711 237.593 104.832 236.995 106.749 236.383C114.155 234.011 120.733 229.679 129.348 227.998C119.757 222.384 93.6068 225.473 76.75 234.596Z" fill="url(#paint7_linear_8_808)"/>
<path d="M410.86 43.99L436.01 78.61C432.86 86.79 430.37 95.08 427.95 103.11C425.3 111.93 422.78 120.29 419.51 128.36L395.68 136.03L379.51 141.23C373.95 133.71 369.34 125.7 364.88 117.93C363.34 115.25 361.75 112.48 360.14 109.77C359.24 108.25 359.33 106.33 359.44 104.11C359.45 103.82 359.47 103.54 359.48 103.26C360.06 88.97 365.27 76.28 372.92 61.62C373.76 60 375.03 58.86 376.81 58.13C385.63 54.48 394.44 50.81 403.43 47.07L410.86 43.99ZM411.9 40.31C399.53 45.45 387.6 50.42 375.67 55.36C373.28 56.35 371.45 57.97 370.27 60.24C363.23 73.75 357.13 87.57 356.5 103.14C356.39 105.92 356.07 108.76 357.58 111.31C364.19 122.44 370.16 133.99 378.41 144.74C392.75 140.12 406.83 135.59 421.76 130.79C428.7 114.16 432.38 95.92 439.4 78.17C430.35 65.72 421.31 53.27 411.9 40.31Z" fill="url(#paint8_linear_8_808)"/>
<path d="M535.17 43.97C537.88 45.09 540.55 46.21 543.2 47.31C551.98 50.97 560.27 54.42 568.71 57.85C571.29 58.9 572.77 60.87 574.21 63.51C579.41 73.09 583.23 83.61 585.89 95.68C587.8 104.35 586.71 110.6 582.36 115.95C580.25 118.55 578.7 121.48 577.2 124.32C576.33 125.96 575.51 127.51 574.6 128.99C573.75 130.35 572.97 131.76 572.2 133.11C570.59 135.96 569.06 138.69 567.05 141.09L566.78 141.01L526.74 128.69C526.1 126.82 525.45 124.95 524.81 123.09C519.81 108.56 514.63 93.56 510.34 78.17L524.98 58.02L535.17 43.97ZM534.13 40.29C524.95 52.93 515.93 65.35 507.05 77.57C512.11 95.98 518.3 113.35 524.38 131.1C538.91 135.57 553.31 140 567.97 144.52C572.02 140.36 574.24 135.23 577.13 130.57C579.73 126.37 581.6 121.63 584.67 117.85C590.37 110.84 590.57 103.05 588.8 95.04C586.27 83.56 582.47 72.48 576.83 62.08C575.16 59.01 573.23 56.45 569.82 55.07C558.14 50.32 546.51 45.42 534.13 40.29Z" fill="url(#paint9_linear_8_808)"/>
<path d="M522.79 141.04L543.9 148.1L562.31 154.26C562.32 154.34 562.33 154.42 562.34 154.49C562.48 155.56 562.58 156.41 562.54 157.1C561.85 167.44 561.11 177.41 560.22 189.38C560 192.38 558.59 195 555.66 197.89C544.21 209.16 532.05 217.52 518.51 223.41C506.42 220.87 493.53 218.01 480.55 214.32V171.46C494.71 160.53 509.17 150.4 522.79 141.04ZM522.32 137.72C507.06 148.2 492.2 158.62 477.53 169.99C477.53 185.88 477.53 200.96 477.53 216.58C491.31 220.59 505.05 223.66 518.8 226.55C533.65 220.23 546.41 211.2 557.74 200.04C560.7 197.13 562.87 193.86 563.19 189.62C563.99 178.85 564.79 168.09 565.51 157.32C565.61 155.82 565.27 154.3 565.06 152.04C550.87 147.27 536.63 142.51 522.32 137.72Z" fill="url(#paint10_linear_8_808)"/>
<path d="M424.12 138.82L467.31 169.96C468.88 184.55 468.39 209.51 466.42 216.65L447.42 221.03L427.74 225.57C413.65 219.58 399.66 210.18 389.33 199.77C385.39 195.79 383.55 191.56 383.54 186.44C383.54 180.68 383.04 174.6 382.02 167.87C381.24 162.71 381.18 158.05 381.85 153.27C390.04 149.39 398.56 146.88 406.81 144.44C412.56 142.74 418.48 140.99 424.12 138.82ZM424.26 137.77C410.36 143.19 395.32 145.75 381.01 152.63C380.18 158.19 380.38 163.17 381.11 168C382.04 174.13 382.61 180.26 382.62 186.44C382.62 192.03 384.72 196.44 388.67 200.43C398.76 210.61 412.72 220.25 427.66 226.55C440.41 223.61 453.88 220.5 467.15 217.44C469.31 210.84 469.87 184.53 468.19 169.46C453.94 159.17 439.21 148.55 424.26 137.77Z" fill="#D2ECFF"/>
<path d="M473.22 3C481.66 3 490.17 4.13998 498.52 6.38998L499.31 7.28C508.06 17.05 516.36 26.3 524.12 36.26L499.97 69.57H446.03L441.86 63.79L421.77 35.98L447.46 6.35001C456.17 4.12001 464.83 3 473.22 3ZM473.22 0C464.21 0 455.11 1.22999 445.81 3.67999C436.81 14.06 427.54 24.76 417.96 35.81C426.98 48.29 435.63 60.27 444.51 72.57C463.33 72.57 482.09 72.57 501.51 72.57C510.05 60.79 518.73 48.82 527.88 36.2C519.25 24.93 509.8 14.47 500.18 3.73001C491.23 1.24001 482.28 0 473.22 0Z" fill="url(#paint11_linear_8_808)"/>
<path d="M516.25 131.96C510.98 114.95 506.65 98.01 499.95 81.57C481.93 81.57 464.41 81.57 445.86 81.57C440.43 98.15 435.01 114.73 429.34 132.02C444 142.72 458.35 153.19 472.83 163.75C487.94 153.47 502.03 143.05 516.25 131.96Z" fill="url(#paint12_linear_8_808)"/>
<path d="M516.61 9.77002C522.71 20.91 534.92 32.53 545.05 36.79C550.66 39.15 556.29 41.48 562.46 44.06C557.75 32.11 530.56 12.12 516.61 9.77002Z" fill="url(#paint13_linear_8_808)"/>
<path d="M472.74 225.89C481.5 225.89 490.29 227.73 499.52 231.51C490.45 233.88 481.77 235.03 473.08 235.03C464.46 235.03 455.83 233.9 446.78 231.57C455.42 227.75 463.93 225.89 472.74 225.89ZM472.74 224.96C463.03 224.96 453.52 227.24 444.06 231.8C453.96 234.56 463.51 235.96 473.08 235.96C482.67 235.96 492.3 234.56 502.34 231.7C492.18 227.21 482.36 224.96 472.74 224.96Z" fill="#D2ECFF"/>
<path d="M428.65 10.01C414.73 13.09 391.73 29.72 383.39 42.75C401.85 40.03 421.88 25.54 428.65 10.01Z" fill="url(#paint14_linear_8_808)"/>
<path d="M357.16 128.71C369.96 144.07 375.04 159.94 373.02 178.28C364.04 163.96 358.96 148.08 357.16 128.71ZM356 125.93C357.45 145.26 362.12 163.52 373.63 180.92C376.81 158.68 369.55 141.27 356 125.93Z" fill="#D2ECFF"/>
<path d="M587.54 129.88C587.48 147.63 580.24 169.67 571.93 177.7C572.83 173.13 572.97 168.75 573.11 164.49C573.22 161.14 573.32 157.98 573.77 154.79C574.05 152.83 574.43 150.6 575.43 148.95C578.67 143.62 582.12 138.29 585.45 133.13C586.15 132.04 586.85 130.96 587.54 129.88ZM588.41 126.82C583.8 134.02 579.08 141.15 574.64 148.46C573.56 150.24 573.15 152.53 572.85 154.65C571.69 162.82 572.79 171.11 570.43 180.12C580.22 173.56 589.34 147.15 588.41 126.82Z" fill="#D2ECFF"/>
<path d="M258.59 235.28L291.19 280.16C287.12 290.67 283.92 301.33 280.81 311.65C277.39 323.01 274.16 333.77 269.91 344.17L234.46 355.58L218.16 360.83C210.9 351.1 204.94 340.72 199.16 330.67C197.21 327.27 195.18 323.75 193.15 320.31C191.88 318.17 192 315.62 192.15 312.66C192.17 312.3 192.18 311.94 192.2 311.58C192.95 293.26 199.61 277.04 209.37 258.31C210.53 256.08 212.28 254.5 214.72 253.49C225.92 248.85 237.11 244.2 248.53 239.45L258.59 235.28ZM259.62 231.6C243.9 238.13 228.74 244.45 213.56 250.73C210.52 251.99 208.2 254.05 206.7 256.93C197.75 274.1 190 291.67 189.19 311.46C189.05 315 188.64 318.61 190.56 321.84C198.96 335.99 206.55 350.66 217.04 364.34C235.27 358.47 253.17 352.71 272.14 346.61C280.97 325.47 285.64 302.29 294.57 279.73C283.08 263.9 271.58 248.07 259.62 231.6Z" fill="url(#paint15_linear_8_808)"/>
<path d="M416.02 235.25C419.67 236.77 423.27 238.26 426.83 239.75C437.98 244.4 448.52 248.78 459.24 253.14C462.74 254.56 464.73 257.19 466.64 260.7C473.29 272.94 478.17 286.39 481.57 301.8C484.06 313.09 482.62 321.25 476.92 328.26C474.28 331.5 472.33 335.19 470.45 338.76C469.34 340.86 468.29 342.84 467.11 344.74C466.04 346.46 465.05 348.23 464.08 349.95C461.92 353.78 459.87 357.42 457.09 360.63L428.12 351.72L404.94 344.59C404.08 342.08 403.22 339.58 402.36 337.08C395.95 318.49 389.33 299.27 383.85 279.56L408.79 245.22L416.02 235.25ZM414.98 231.57C403.31 247.64 391.85 263.42 380.56 278.95C387 302.34 394.85 324.43 402.59 347C421.06 352.68 439.37 358.32 458 364.05C463.14 358.77 465.97 352.24 469.64 346.32C472.94 340.99 475.32 334.96 479.23 330.15C486.47 321.24 486.72 311.33 484.48 301.15C481.27 286.56 476.43 272.47 469.26 259.26C467.14 255.36 464.69 252.11 460.36 250.35C445.5 244.32 430.72 238.1 414.98 231.57Z" fill="url(#paint16_linear_8_808)"/>
<path d="M400.44 358.73L449.61 375.18L451.54 375.82C451.57 376.1 451.61 376.37 451.64 376.62C451.82 378.02 451.96 379.13 451.89 380.09C451.01 393.25 450.07 405.92 448.94 421.13C448.64 425.15 446.78 428.64 442.9 432.46C428.21 446.93 412.59 457.63 395.19 465.17C379.55 461.89 362.85 458.18 346.04 453.38V397.89C364.3 383.81 382.93 370.77 400.44 358.73ZM399.98 355.41C380.59 368.73 361.69 381.98 343.05 396.42C343.05 416.62 343.05 435.78 343.05 455.64C360.56 460.74 378.03 464.64 395.51 468.31C414.39 460.28 430.6 448.79 445.01 434.61C448.77 430.91 451.54 426.76 451.94 421.36C452.96 407.68 453.97 393.99 454.89 380.3C455.02 378.4 454.58 376.46 454.32 373.59C436.26 367.55 418.16 361.5 399.98 355.41Z" fill="url(#paint17_linear_8_808)"/>
<path d="M274.89 358.86L328.33 397.4C330.27 416.39 329.48 444.82 327.42 454.22L292.97 462.17L279.94 465.18C262.42 457.64 245.08 445.95 232.24 433.01C227.52 428.25 225.42 423.42 225.41 417.34C225.41 409.92 224.77 402.11 223.46 393.46C222.55 387.43 222.44 381.96 223.12 376.39C233.13 371.75 243.57 368.67 253.69 365.69C260.7 363.62 267.93 361.48 274.89 358.86ZM275.33 355.48C257.66 362.37 238.55 365.62 220.36 374.37C219.31 381.44 219.56 387.77 220.49 393.9C221.67 401.7 222.4 409.48 222.4 417.33C222.4 424.44 225.07 430.04 230.1 435.11C242.93 448.04 260.67 460.3 279.66 468.31C295.86 464.57 312.99 460.62 329.86 456.73C332.6 448.34 333.32 414.9 331.18 395.74C313.06 382.68 294.34 369.18 275.33 355.48Z" fill="url(#paint18_linear_8_808)"/>
<path d="M337.56 183.36C348.44 183.36 359.4 184.84 370.17 187.76L371.34 189.06C382.62 201.64 393.3 213.56 403.29 226.43L384.45 252.42L371.99 269.6H302.6L271.14 226.05L295.16 198.34L304.38 187.7C315.6 184.82 326.76 183.36 337.56 183.36ZM337.56 180.36C326.11 180.36 314.54 181.92 302.72 185.04C291.29 198.23 279.5 211.83 267.32 225.89C278.78 241.76 289.77 256.98 301.07 272.61C324.99 272.61 348.84 272.61 373.52 272.61C384.38 257.63 395.4 242.43 407.03 226.39C396.06 212.06 384.05 198.77 371.82 185.12C360.46 181.94 349.08 180.36 337.56 180.36Z" fill="url(#paint19_linear_8_808)"/>
<path d="M392.26 348.09C385.57 326.47 380.06 304.94 371.54 284.04C348.64 284.04 326.37 284.04 302.79 284.04C295.89 305.11 288.99 326.19 281.8 348.17C300.44 361.77 318.68 375.08 337.08 388.51C356.27 375.43 374.19 362.19 392.26 348.09Z" fill="url(#paint20_linear_8_808)"/>
<path d="M392.72 192.78C400.47 206.94 416 221.71 428.88 227.12C436.01 230.12 443.16 233.09 451.01 236.36C445 221.17 410.45 195.77 392.72 192.78Z" fill="url(#paint21_linear_8_808)"/>
<path d="M336.96 469.3C346.12 469.3 355.3 470.92 364.83 474.23C355.5 476.28 346.45 477.28 337.39 477.28C328.35 477.28 319.29 476.28 309.92 474.24C318.88 470.93 327.8 469.3 336.96 469.3ZM336.96 466.3C324.62 466.3 312.53 469.2 300.51 474.99C313.1 478.49 325.23 480.27 337.39 480.27C349.58 480.27 361.81 478.48 374.59 474.86C361.66 469.15 349.18 466.3 336.96 466.3Z" fill="#D2ECFF"/>
<path d="M280.91 193.09C263.21 197 233.99 218.14 223.39 234.7C246.85 231.24 272.31 212.82 280.91 193.09Z" fill="url(#paint22_linear_8_808)"/>
<path d="M188.57 340.42C190.42 364.98 196.35 388.2 210.98 410.32C215.02 382.05 205.79 359.92 188.57 340.42Z" fill="url(#paint23_linear_8_808)"/>
<path d="M480.83 351.97C479.53 370.45 473 389.51 465.77 400.04C466.13 396.44 466.24 392.93 466.35 389.48C466.48 385.27 466.61 381.3 467.17 377.35C467.5 375.04 467.94 372.42 469.03 370.62C472.85 364.35 476.89 358.07 480.83 351.97ZM483.98 341.56C478.11 350.71 472.12 359.78 466.48 369.07C465.11 371.33 464.59 374.25 464.21 376.94C462.74 387.32 464.14 397.86 461.13 409.31C473.57 400.97 485.16 367.39 483.98 341.56Z" fill="#D2ECFF"/>
<defs>
<linearGradient id="paint0_linear_8_808" x1="75.5547" y1="418.491" x2="178.037" y2="405.202" gradientUnits="userSpaceOnUse">
<stop offset="7.3e-07" stop-color="#B5BFD2" stop-opacity="0.4"/>
<stop offset="0.9732" stop-color="#C0CCDD" stop-opacity="0.553"/>
</linearGradient>
<linearGradient id="paint1_linear_8_808" x1="21.9476" y1="288.083" x2="105.344" y2="277.268" gradientUnits="userSpaceOnUse">
<stop offset="0.00345444" stop-color="#B5BFD2" stop-opacity="0.2"/>
<stop offset="1" stop-color="#BCC7D9" stop-opacity="0.4887"/>
</linearGradient>
<linearGradient id="paint2_linear_8_808" x1="111.682" y1="275.323" x2="194.817" y2="264.543" gradientUnits="userSpaceOnUse">
<stop stop-color="#BBC6D8" stop-opacity="0.4839"/>
<stop offset="0.9732" stop-color="#C0CCDD" stop-opacity="0.553"/>
</linearGradient>
<linearGradient id="paint3_linear_8_808" x1="10.3969" y1="374.579" x2="87.8568" y2="364.535" gradientUnits="userSpaceOnUse">
<stop offset="9.4e-07" stop-color="#B5BFD2" stop-opacity="0.2"/>
<stop offset="1" stop-color="#BBC6D8" stop-opacity="0.4808"/>
</linearGradient>
<linearGradient id="paint4_linear_8_808" x1="75.8373" y1="337.519" x2="156.705" y2="327.033" gradientUnits="userSpaceOnUse">
<stop offset="7.3e-07" stop-color="#B5BFD2" stop-opacity="0.4"/>
<stop offset="1" stop-color="#C2CFE1" stop-opacity="0.5922"/>
</linearGradient>
<linearGradient id="paint5_linear_8_808" x1="7.26543" y1="316.391" x2="17.4728" y2="317.755" gradientUnits="userSpaceOnUse">
<stop offset="0.00345444" stop-color="#B5BFD2" stop-opacity="0.2"/>
<stop offset="1" stop-color="#B7C1D4" stop-opacity="0.2879"/>
</linearGradient>
<linearGradient id="paint6_linear_8_808" x1="45.129" y1="433.271" x2="87.5103" y2="427.775" gradientUnits="userSpaceOnUse">
<stop offset="9.4e-07" stop-color="#B5BFD2" stop-opacity="0.2"/>
<stop offset="0.9732" stop-color="#C0CCDD" stop-opacity="0.3"/>
</linearGradient>
<linearGradient id="paint7_linear_8_808" x1="76.8142" y1="235.125" x2="129.381" y2="228.309" gradientUnits="userSpaceOnUse">
<stop offset="7.3e-07" stop-color="#B5BFD2" stop-opacity="0.4"/>
<stop offset="1" stop-color="#C3D0E1" stop-opacity="0.6031"/>
</linearGradient>
<linearGradient id="paint8_linear_8_808" x1="356.383" y1="92.5323" x2="439.399" y2="92.5323" gradientUnits="userSpaceOnUse">
<stop offset="7.3e-07" stop-color="#B5BFD2" stop-opacity="0.4"/>
<stop offset="1" stop-color="#CCDBEA" stop-opacity="0.7249"/>
</linearGradient>
<linearGradient id="paint9_linear_8_808" x1="507.052" y1="92.4003" x2="589.792" y2="92.4003" gradientUnits="userSpaceOnUse">
<stop stop-color="#D2E2F1" stop-opacity="0.8103"/>
<stop offset="1" stop-color="#DFF2FF"/>
</linearGradient>
<linearGradient id="paint10_linear_8_808" x1="477.534" y1="182.134" x2="565.541" y2="182.134" gradientUnits="userSpaceOnUse">
<stop stop-color="#C9D8E8" stop-opacity="0.6883"/>
<stop offset="1" stop-color="#DFF2FF"/>
</linearGradient>
<linearGradient id="paint11_linear_8_808" x1="417.952" y1="36.2838" x2="527.869" y2="36.2838" gradientUnits="userSpaceOnUse">
<stop stop-color="#C9D8E8" stop-opacity="0.691"/>
<stop offset="1" stop-color="#DFF2FF"/>
</linearGradient>
<linearGradient id="paint12_linear_8_808" x1="429.348" y1="122.666" x2="516.252" y2="122.666" gradientUnits="userSpaceOnUse">
<stop stop-color="#C9D7E7" stop-opacity="0.6813"/>
<stop offset="1" stop-color="#DFF2FF"/>
</linearGradient>
<linearGradient id="paint13_linear_8_808" x1="562.466" y1="26.9146" x2="516.61" y2="26.9146" gradientUnits="userSpaceOnUse">
<stop offset="2.1e-07" stop-color="#D2ECFF"/>
<stop offset="1" stop-color="#173773" stop-opacity="0"/>
</linearGradient>
<linearGradient id="paint14_linear_8_808" x1="383.391" y1="26.3841" x2="428.646" y2="26.3841" gradientUnits="userSpaceOnUse">
<stop offset="7.3e-07" stop-color="#B5BFD2" stop-opacity="0.4"/>
<stop offset="0.5794" stop-color="#C2CFE0" stop-opacity="0.5882"/>
<stop offset="1" stop-color="#C2CFE0" stop-opacity="0.5882"/>
</linearGradient>
<linearGradient id="paint15_linear_8_808" x1="189.058" y1="297.974" x2="294.577" y2="297.974" gradientUnits="userSpaceOnUse">
<stop offset="7.3e-07" stop-color="#B5BFD2" stop-opacity="0.4"/>
<stop offset="0.9732" stop-color="#C0CCDD" stop-opacity="0.553"/>
</linearGradient>
<linearGradient id="paint16_linear_8_808" x1="380.567" y1="297.807" x2="485.735" y2="297.807" gradientUnits="userSpaceOnUse">
<stop stop-color="#D8EAF8" stop-opacity="0.904"/>
<stop offset="1" stop-color="#DFF2FF"/>
</linearGradient>
<linearGradient id="paint17_linear_8_808" x1="343.048" y1="411.864" x2="454.91" y2="411.864" gradientUnits="userSpaceOnUse">
<stop stop-color="#D1E1F1" stop-opacity="0.8039"/>
<stop offset="1" stop-color="#DFF2FF"/>
</linearGradient>
<linearGradient id="paint18_linear_8_808" x1="219.679" y1="411.894" x2="332.427" y2="411.894" gradientUnits="userSpaceOnUse">
<stop offset="7.3e-07" stop-color="#B5BFD2" stop-opacity="0.4"/>
<stop offset="1" stop-color="#CBDAE9" stop-opacity="0.7124"/>
</linearGradient>
<linearGradient id="paint19_linear_8_808" x1="267.316" y1="226.479" x2="407.027" y2="226.479" gradientUnits="userSpaceOnUse">
<stop offset="7.3e-07" stop-color="#B5BFD2" stop-opacity="0.4"/>
<stop offset="1" stop-color="#DFF2FF"/>
</linearGradient>
<linearGradient id="paint20_linear_8_808" x1="282.304" y1="333.762" x2="392.627" y2="337.614" gradientUnits="userSpaceOnUse">
<stop offset="7.3e-07" stop-color="#B5BFD2" stop-opacity="0.4"/>
<stop offset="1" stop-color="#DFF2FF"/>
</linearGradient>
<linearGradient id="paint21_linear_8_808" x1="410.025" y1="221.681" x2="433.898" y2="207.337" gradientUnits="userSpaceOnUse">
<stop stop-color="#D1E1F0" stop-opacity="0.7974"/>
<stop offset="1" stop-color="#DFF2FF"/>
</linearGradient>
<linearGradient id="paint22_linear_8_808" x1="223.387" y1="213.896" x2="280.909" y2="213.896" gradientUnits="userSpaceOnUse">
<stop offset="7.3e-07" stop-color="#B5BFD2" stop-opacity="0.4"/>
<stop offset="0.9629" stop-color="#C2CEDF" stop-opacity="0.5784"/>
</linearGradient>
<linearGradient id="paint23_linear_8_808" x1="195.06" y1="377.088" x2="207.884" y2="372.42" gradientUnits="userSpaceOnUse">
<stop offset="7.3e-07" stop-color="#B5BFD2" stop-opacity="0.4"/>
<stop offset="1" stop-color="#BFCBDC" stop-opacity="0.5403"/>
</linearGradient>
</defs>
</svg>
