<svg width="279" height="399" viewBox="0 0 279 399" fill="none" xmlns="http://www.w3.org/2000/svg">
<path d="M212.912 20.29C216.952 20.29 221.022 20.41 224.952 20.53C227.642 20.61 230.422 20.69 233.162 20.73C235.252 20.76 236.922 21.91 238.702 23.12C238.902 23.26 239.102 23.4 239.312 23.53C250.592 31.11 258.182 42.25 264.702 53.16C265.732 54.89 266.092 56.81 265.762 58.88C264.452 67.07 263.162 75.25 261.832 83.6L260.482 92.12L239.092 93.77L220.772 95.18C216.002 88.85 210.772 82.97 205.712 77.29C200.132 71.02 194.852 65.09 190.162 58.63L195.752 35.76L199.392 20.88C203.492 20.48 207.812 20.29 212.912 20.29ZM212.912 19.5C208.252 19.5 203.542 19.66 198.762 20.15C195.632 32.94 192.572 45.49 189.312 58.8C198.512 71.58 210.412 82.66 220.402 96C233.812 94.96 247.222 93.93 261.162 92.85C262.992 81.29 264.752 70.14 266.532 58.99C266.892 56.76 266.512 54.66 265.372 52.74C258.542 41.32 251.032 30.46 239.742 22.86C237.722 21.5 235.752 19.97 233.172 19.93C226.452 19.84 219.732 19.5 212.912 19.5Z" fill="#D2ECFF"/>
<path d="M142.972 138.32C144.592 138.68 146.222 139.04 147.832 139.41C160.872 142.32 174.342 145.32 187.692 149.14L195.722 168.6L201.592 182.82C199.602 184.26 197.632 185.68 195.672 187.09C188.932 191.95 182.572 196.55 176.152 201.26C174.752 202.29 173.192 202.73 170.912 202.73C170.532 202.73 170.122 202.72 169.672 202.69C161.652 202.26 150.882 199.72 137.692 195.13C132.402 193.29 131.332 191.56 127.812 185.81L126.972 184.44C124.802 180.92 117.872 168.04 115.672 162.33L128.092 151.41L142.972 138.32ZM142.132 135.05C132.162 143.82 122.272 152.51 112.202 161.36C113.442 166.27 122.182 182.37 124.412 185.99C128.702 192.95 129.932 195.59 136.702 197.95C146.402 201.32 159.192 205.12 169.512 205.67C169.982 205.7 170.452 205.71 170.912 205.71C173.412 205.71 175.742 205.27 177.932 203.66C186.812 197.13 195.782 190.71 205.262 183.85C200.052 171.23 194.942 158.84 189.902 146.64C173.892 141.99 158.132 138.65 142.132 135.05Z" fill="url(#paint0_linear_8_809)"/>
<path d="M100.302 64.82L131.802 84.18C133.432 99.59 134.352 114.85 135.082 129.15L127.062 135.86L107.492 152.24C106.662 151.87 106.012 151.57 105.552 151.24C98.1619 145.99 91.0819 140.88 82.5919 134.75C80.5419 133.27 79.2819 131.09 78.4919 127.68C75.3619 114.09 74.7019 101.3 76.4819 88.61C83.8119 80.87 91.7319 72.69 100.302 64.82ZM99.9419 61.08C90.6519 69.5 82.0819 78.32 73.6419 87.24C71.5519 101.19 72.4419 114.81 75.5619 128.36C76.3719 131.9 77.8119 135.01 80.8219 137.18C88.4719 142.7 96.1119 148.22 103.802 153.69C104.872 154.45 106.162 154.89 107.942 155.77C117.982 147.37 128.032 138.95 138.142 130.49C137.322 114.34 136.362 98.51 134.612 82.39C122.792 75.12 111.572 68.23 99.9419 61.08Z" fill="url(#paint1_linear_8_809)"/>
<path d="M157.282 2.55001C160.162 2.55001 162.812 3.32001 165.392 4.90001C169.682 7.53001 174.432 9.94001 179.912 12.27C184.112 14.05 187.612 16.14 190.872 18.83C190.012 26.7 187.982 34.2 186.022 41.46C184.652 46.5 183.242 51.71 182.282 56.91L139.322 74.82C127.732 69.31 109.362 57.51 104.962 52.78L116.022 19.9C126.932 12.15 140.332 6.03001 152.812 3.11001C154.392 2.73001 155.862 2.55001 157.282 2.55001ZM157.282 1.76001C155.782 1.76001 154.232 1.96001 152.622 2.34001C140.432 5.20001 126.862 11.18 115.342 19.41C111.702 30.24 107.842 41.7 104.052 52.97C107.982 57.6 127.302 70.05 139.292 75.69C153.462 69.78 168.102 63.68 182.972 57.48C185.292 44.65 190.272 32.29 191.692 18.49C187.932 15.33 184.132 13.2 180.212 11.54C175.222 9.42001 170.402 7.05001 165.802 4.23001C163.042 2.53001 160.242 1.76001 157.282 1.76001Z" fill="#D2ECFF"/>
<path d="M259.602 102.6L267.062 126.27L269.782 134.88C265.112 149.87 257.522 162.2 246.612 172.51L245.692 172.68C234.522 174.71 223.932 176.63 213.082 177.85L199.522 145.08L223.992 105.26L250.062 103.32L259.602 102.6ZM261.752 99.43C248.332 100.43 235.462 101.39 222.252 102.38C213.642 116.39 205.062 130.35 196.172 144.81C201.032 156.56 205.972 168.49 211.182 181.07C223.522 179.8 235.622 177.55 248.022 175.31C259.872 164.32 268.062 151.01 272.932 134.87C269.312 123.42 265.592 111.62 261.752 99.43Z" fill="url(#paint2_linear_8_809)"/>
<path d="M145.212 128.61C160.282 132.47 174.872 137 190.172 139.53C198.412 126.12 206.432 113.08 214.912 99.27C205.052 87.65 195.202 76.02 184.912 63.9C170.242 69.92 155.882 75.81 141.392 81.75C142.162 97.69 143.462 112.95 145.212 128.61Z" fill="url(#paint3_linear_8_809)"/>
<path d="M236.002 184.77C224.922 184.21 210.682 187.99 202.882 193.58C198.562 196.68 194.252 199.8 189.502 203.21C200.552 205.17 227.862 194.08 236.002 184.77Z" fill="url(#paint4_linear_8_809)"/>
<path d="M102.882 31.28C100.682 47.49 92.7618 60.41 78.7418 70.66C83.4518 55.19 91.1818 42.58 102.882 31.28ZM103.922 29.2C90.7418 41.43 82.2718 55.08 77.3318 72.63C93.4118 61.55 102.052 47.37 103.922 29.2Z" fill="#D2ECFF"/>
<path d="M272.432 72.55C277.342 84.38 278.962 105.88 275.792 117.35C268.532 105.64 267.102 86.7 272.432 72.55ZM272.392 70.53C265.972 85.51 267.592 107.05 276.052 119.19C280.142 107.42 278.272 82.69 272.392 70.53Z" fill="#D2ECFF"/>
<path d="M177.062 0.79C191.592 0.79 205.442 4.26 220.472 11.69C216.882 12.21 213.412 12.47 210.122 12.47C197.432 12.47 186.322 8.65 176.212 0.79C176.492 0.79 176.782 0.79 177.062 0.79ZM177.062 0C176.052 0 175.042 0.02 174.022 0.05C185.362 9.48 197.372 13.26 210.122 13.26C214.342 13.26 218.632 12.85 223.022 12.08C208.812 4.76 194.002 0 177.062 0Z" fill="#D2ECFF"/>
<path d="M116.032 184.67C112.782 177.94 109.632 171.17 106.222 164.52C105.392 162.9 103.872 161.55 102.432 160.36C96.8818 155.76 90.2018 152.79 84.5818 146.9C84.9918 157.19 100.472 176.06 116.032 184.67Z" fill="url(#paint5_linear_8_809)"/>
<path d="M51.9118 210.99C52.1318 210.99 52.3518 211 52.5718 211.02C60.8918 211.76 69.2118 212.49 77.6918 213.23L84.3618 213.81L88.3918 241.06L89.7518 250.29C84.0518 255.32 78.8118 260.69 73.7418 265.89C68.1718 271.6 62.8818 277.01 57.1518 281.89L21.4218 275.76C20.1918 267.8 19.8718 259.83 19.5618 252.11C19.4518 249.41 19.3418 246.62 19.1918 243.87C19.1118 242.45 19.9318 241.04 20.8918 239.42C21.0218 239.2 21.1418 238.99 21.2718 238.77C27.4718 228 36.6018 220.31 48.4118 212.08C49.4618 211.35 50.6118 210.99 51.9118 210.99ZM51.9118 207.99C50.0118 207.99 48.2618 208.53 46.6818 209.63C35.7618 217.24 25.4518 225.48 18.6618 237.28C17.4518 239.39 16.0518 241.46 16.1918 244.04C16.8018 255.34 16.7618 266.69 18.8018 278.36C31.7818 280.59 44.5118 282.77 58.0118 285.09C70.1218 275.02 80.3418 262.38 92.9618 251.48C90.9918 238.17 89.0318 224.87 86.9818 211.03C75.3218 210.01 64.0818 209.03 52.8318 208.03C52.5318 208.01 52.2218 207.99 51.9118 207.99Z" fill="url(#paint6_linear_8_809)"/>
<path d="M180.872 264.2C182.452 266.09 184.002 267.96 185.552 269.81C190.872 276.19 195.892 282.22 201.042 288.29C202.342 289.82 202.872 291.61 202.922 294.66C203.072 304.15 201.782 313.81 198.972 324.19C197.362 330.13 194.712 332.73 187.532 338.66C184.532 341.13 172.022 348.79 166.422 351.35L157.652 342.67L140.582 325.79C140.832 324.14 141.082 322.5 141.322 320.86C143.312 307.65 145.372 294.01 148.252 280.42L168.732 270.24L180.872 264.2ZM181.652 260.46C169.432 266.53 157.422 272.5 145.602 278.37C142.082 294.67 139.832 310.63 137.372 326.84C146.812 336.18 156.172 345.44 165.702 354.86C170.492 353.29 186.142 343.67 189.422 340.96C196.702 334.95 199.972 331.88 201.852 324.97C204.542 315.06 206.082 304.94 205.912 294.61C205.862 291.56 205.402 288.8 203.322 286.35C196.192 277.94 189.162 269.45 181.652 260.46Z" fill="url(#paint7_linear_8_809)"/>
<path d="M131.972 334.29L146.562 349.44L156.922 360.2C156.602 361.05 156.352 361.72 156.062 362.2C151.332 369.94 146.732 377.36 141.212 386.26C139.882 388.41 137.792 389.82 134.452 390.84C123.502 394.18 113.062 395.81 102.542 395.81C100.242 395.81 97.9117 395.73 95.6117 395.57C87.3817 388.79 78.6717 381.46 70.2117 373.46L73.2217 367.69L87.3217 340.69C102.602 338 117.762 336.02 131.972 334.29ZM133.092 331.14C117.042 333.08 101.312 335.14 85.3617 338.01C78.9317 350.32 72.8317 361.99 66.5117 374.09C75.5617 382.77 84.9517 390.71 94.4417 398.5C97.1617 398.72 99.8617 398.82 102.542 398.82C113.722 398.82 124.602 396.99 135.322 393.72C138.792 392.66 141.792 391.01 143.762 387.85C148.742 379.84 153.712 371.82 158.622 363.77C159.302 362.65 159.652 361.33 160.412 359.5C151.332 350.08 142.242 340.63 133.092 331.14Z" fill="url(#paint8_linear_8_809)"/>
<path d="M18.032 286.33C25.942 286.64 33.572 288.14 40.942 289.59C46.072 290.6 51.362 291.64 56.622 292.25L68.262 315.46L77.482 333.85C72.792 345.79 62.302 364.94 57.892 369.67L24.812 361.06L24.322 360.93C15.832 350.59 8.79196 337.65 5.00196 325.4C3.55196 320.72 3.84196 316.69 5.91196 312.72C8.24196 308.26 10.312 303.35 12.252 297.73C13.732 293.4 15.582 289.77 18.032 286.33ZM17.642 285.52C14.752 289.49 12.892 293.43 11.502 297.46C9.74196 302.58 7.70196 307.56 5.21196 312.35C2.95196 316.68 2.79196 320.94 4.24196 325.63C7.94196 337.59 14.852 350.71 23.862 361.63C34.922 364.51 46.612 367.55 58.132 370.55C62.472 366.31 73.552 346.17 78.342 333.81C71.462 320.09 64.352 305.9 57.132 291.51C44.182 290.08 31.502 285.98 17.642 285.52Z" fill="#D2ECFF"/>
<path d="M128.302 199.52C143.582 203.14 156.402 209.85 167.452 220.02L167.682 220.92C170.482 231.92 173.142 242.35 175.112 253.09L154.972 263.12L143.372 268.9L101.952 247.26L101.462 243.9L96.8217 211.92L128.302 199.52ZM128.062 196.38C116.902 200.78 105.392 205.31 93.4917 210C95.4217 223.32 97.2817 236.09 99.1817 249.2C113.762 256.81 128.282 264.4 143.322 272.26C154.702 266.59 166.262 260.84 178.452 254.77C176.322 242.55 173.242 230.63 170.132 218.42C158.352 207.36 144.502 200.12 128.062 196.38Z" fill="url(#paint9_linear_8_809)"/>
<path d="M130.722 324.22C133.522 308.92 137.022 294.05 138.482 278.61C124.532 271.32 110.962 264.23 96.6019 256.73C85.6919 267.37 74.7819 278.02 63.4019 289.12C70.4319 303.33 77.3019 317.25 84.2419 331.29C100.102 329.42 115.232 327.05 130.722 324.22Z" fill="url(#paint10_linear_8_809)"/>
<path d="M180.432 229.74C180.642 240.83 185.412 254.77 191.532 262.17C194.922 266.27 198.332 270.35 202.072 274.85C203.252 263.68 190.282 237.21 180.432 229.74Z" fill="url(#paint11_linear_8_809)"/>
<path d="M36.5816 373.23C52.9016 374.29 66.3416 381.3 77.5516 394.57C61.7916 390.95 48.6716 384.11 36.5816 373.23ZM34.4417 372.33C47.5617 384.62 61.7616 392.12 79.6116 395.83C67.4416 380.57 52.6917 372.93 34.4417 372.33Z" fill="#D2ECFF"/>
<path d="M112.212 194.35C100.182 191.1 75.6519 194.68 63.9219 201.4C79.3219 206.75 100.702 203.63 112.212 194.35Z" fill="url(#paint12_linear_8_809)"/>
<path d="M8.85177 257.29C12.5718 274.41 10.0818 288.79 1.06176 302.2C-0.108235 287.44 2.38177 273.05 8.85177 257.29ZM9.07177 254.72C2.38177 270.27 -1.39823 286.31 0.481767 304.43C11.9418 288.5 13.3518 272.08 9.07177 254.72Z" fill="#D2ECFF"/>
<path d="M188.682 349.43C182.192 353.14 175.652 356.76 169.262 360.62C167.712 361.56 166.462 363.17 165.372 364.69C161.172 370.55 158.672 377.41 153.192 383.43C163.432 382.31 181.182 365.54 188.682 349.43Z" fill="url(#paint13_linear_8_809)"/>
<defs>
<linearGradient id="paint0_linear_8_809" x1="112.208" y1="170.385" x2="205.271" y2="170.385" gradientUnits="userSpaceOnUse">
<stop stop-color="#C4D2E2" stop-opacity="0.6179"/>
<stop offset="1" stop-color="#D4E5F3" stop-opacity="0.8451"/>
</linearGradient>
<linearGradient id="paint1_linear_8_809" x1="72.5097" y1="108.422" x2="138.15" y2="108.422" gradientUnits="userSpaceOnUse">
<stop offset="7.3e-07" stop-color="#B5BFD2" stop-opacity="0.4"/>
<stop offset="1" stop-color="#C4D2E2" stop-opacity="0.6179"/>
</linearGradient>
<linearGradient id="paint2_linear_8_809" x1="196.168" y1="140.244" x2="272.925" y2="140.244" gradientUnits="userSpaceOnUse">
<stop stop-color="#D2E2F1" stop-opacity="0.8168"/>
<stop offset="1" stop-color="#DFF2FF"/>
</linearGradient>
<linearGradient id="paint3_linear_8_809" x1="214.919" y1="101.709" x2="141.407" y2="101.709" gradientUnits="userSpaceOnUse">
<stop offset="2.1e-07" stop-color="#D2ECFF"/>
<stop offset="1" stop-color="#8CA8CA" stop-opacity="0.6247"/>
</linearGradient>
<linearGradient id="paint4_linear_8_809" x1="189.499" y1="194.082" x2="235.999" y2="194.082" gradientUnits="userSpaceOnUse">
<stop offset="0.00259077" stop-color="#CEDCEC" stop-opacity="0.7516"/>
<stop offset="1" stop-color="#D7E8F6" stop-opacity="0.8848"/>
</linearGradient>
<linearGradient id="paint5_linear_8_809" x1="84.5829" y1="165.782" x2="116.03" y2="165.782" gradientUnits="userSpaceOnUse">
<stop stop-color="#B6C0D3" stop-opacity="0.415"/>
<stop offset="7.3e-07" stop-color="#B5BFD2" stop-opacity="0.4"/>
<stop offset="1" stop-color="#C6D4E4" stop-opacity="0.6441"/>
</linearGradient>
<linearGradient id="paint6_linear_8_809" x1="16.1869" y1="246.543" x2="92.9685" y2="246.543" gradientUnits="userSpaceOnUse">
<stop stop-color="#BBC6D8" stop-opacity="0.4824"/>
<stop offset="0.4482" stop-color="#BBC6D8" stop-opacity="0.4824"/>
<stop offset="1" stop-color="#C2CFE0" stop-opacity="0.5838"/>
</linearGradient>
<linearGradient id="paint7_linear_8_809" x1="137.371" y1="307.662" x2="205.925" y2="307.662" gradientUnits="userSpaceOnUse">
<stop stop-color="#CAD8E8" stop-opacity="0.7"/>
<stop offset="1" stop-color="#DFF2FF"/>
</linearGradient>
<linearGradient id="paint8_linear_8_809" x1="66.5136" y1="364.976" x2="160.413" y2="364.976" gradientUnits="userSpaceOnUse">
<stop offset="7.3e-07" stop-color="#B5BFD2" stop-opacity="0.4"/>
<stop offset="1" stop-color="#CDDCEB" stop-opacity="0.7394"/>
</linearGradient>
<linearGradient id="paint9_linear_8_809" x1="91.4308" y1="229.669" x2="180.115" y2="238.99" gradientUnits="userSpaceOnUse">
<stop offset="0.3135" stop-color="#CCDBEA" stop-opacity="0.7249"/>
<stop offset="1" stop-color="#CCDBEA" stop-opacity="0.7249"/>
</linearGradient>
<linearGradient id="paint10_linear_8_809" x1="63.4037" y1="294.004" x2="138.483" y2="294.004" gradientUnits="userSpaceOnUse">
<stop offset="7.3e-07" stop-color="#B5BFD2" stop-opacity="0.4"/>
<stop offset="1" stop-color="#D3E4F2" stop-opacity="0.8306"/>
</linearGradient>
<linearGradient id="paint11_linear_8_809" x1="180.431" y1="252.293" x2="202.145" y2="252.293" gradientUnits="userSpaceOnUse">
<stop offset="0.00259077" stop-color="#CEDCEC" stop-opacity="0.7516"/>
<stop offset="1" stop-color="#DFF2FF"/>
</linearGradient>
<linearGradient id="paint12_linear_8_809" x1="107.802" y1="186.705" x2="68.5351" y2="209.375" gradientUnits="userSpaceOnUse">
<stop offset="2.1e-07" stop-color="#D2ECFF"/>
<stop offset="1" stop-color="#8CA8CA" stop-opacity="0.6247"/>
</linearGradient>
<linearGradient id="paint13_linear_8_809" x1="153.194" y1="366.428" x2="188.681" y2="366.428" gradientUnits="userSpaceOnUse">
<stop stop-color="#CAD8E8" stop-opacity="0.7"/>
<stop offset="1" stop-color="#DFF2FF"/>
</linearGradient>
</defs>
</svg>
